<svg width="16" height="16" viewBox="0 0 16 16" fill="none" xmlns="http://www.w3.org/2000/svg">
<path d="M11.6932 5.53977C12.599 5.53977 13.3332 4.80551 13.3332 3.89977C13.3332 2.99402 12.599 2.25977 11.6932 2.25977C10.7875 2.25977 10.0532 2.99402 10.0532 3.89977C10.0532 4.80551 10.7875 5.53977 11.6932 5.53977Z" stroke="#29272E" stroke-width="1.5" stroke-miterlimit="10" stroke-linecap="round" stroke-linejoin="round"/>
<path d="M4.30651 5.53977C5.21226 5.53977 5.9465 4.80551 5.9465 3.89977C5.9465 2.99402 5.21226 2.25977 4.30651 2.25977C3.40076 2.25977 2.6665 2.99402 2.6665 3.89977C2.6665 4.80551 3.40076 5.53977 4.30651 5.53977Z" stroke="#29272E" stroke-width="1.5" stroke-miterlimit="10" stroke-linecap="round" stroke-linejoin="round"/>
<path d="M11.6932 13.74C12.599 13.74 13.3332 13.0057 13.3332 12.1C13.3332 11.1942 12.599 10.46 11.6932 10.46C10.7875 10.46 10.0532 11.1942 10.0532 12.1C10.0532 13.0057 10.7875 13.74 11.6932 13.74Z" stroke="#29272E" stroke-width="1.5" stroke-miterlimit="10" stroke-linecap="round" stroke-linejoin="round"/>
<path d="M4.30651 13.74C5.21226 13.74 5.9465 13.0057 5.9465 12.1C5.9465 11.1942 5.21226 10.46 4.30651 10.46C3.40076 10.46 2.6665 11.1942 2.6665 12.1C2.6665 13.0057 3.40076 13.74 4.30651 13.74Z" stroke="#29272E" stroke-width="1.5" stroke-miterlimit="10" stroke-linecap="round" stroke-linejoin="round"/>
</svg>
