<svg width="311" height="120" viewBox="0 0 311 120" fill="none" xmlns="http://www.w3.org/2000/svg">
<path opacity="0.09" d="M290.843 99.9708C290.792 97.9694 291.341 95.9985 292.417 94.3099C293.494 92.6213 295.05 91.2917 296.887 90.4908C298.723 89.69 300.757 89.4543 302.729 89.8139C304.7 90.1736 306.519 91.1121 307.954 92.5097C309.389 93.9074 310.374 95.7006 310.784 97.6603C311.194 99.6201 311.009 101.657 310.254 103.512C309.5 105.366 308.208 106.954 306.546 108.072C304.884 109.19 302.925 109.787 300.921 109.788C298.282 109.821 295.738 108.805 293.848 106.964C291.958 105.123 290.877 102.608 290.843 99.9708ZM66.2315 109.788C64.921 109.82 63.6174 109.589 62.3974 109.11C61.1774 108.631 60.0657 107.913 59.1276 106.998C58.1895 106.083 57.4441 104.99 56.9351 103.784C56.4262 102.577 56.164 101.28 56.164 99.9708C56.164 98.6612 56.4262 97.3649 56.9351 96.158C57.4441 94.9511 58.1895 93.8582 59.1276 92.9434C60.0657 92.0287 61.1774 91.3106 62.3974 90.8315C63.6174 90.3524 64.921 90.1219 66.2315 90.1536H10.0787C8.76822 90.1853 7.46463 89.9548 6.24464 89.4757C5.02465 88.9966 3.9129 88.2785 2.97483 87.3638C2.03676 86.449 1.2913 85.3561 0.782338 84.1492C0.273371 82.9424 0.0111732 81.646 0.0111732 80.3364C0.0111732 79.0268 0.273371 77.7305 0.782338 76.5236C1.2913 75.3167 2.03676 74.2238 2.97483 73.309C3.9129 72.3943 5.02465 71.6762 6.24464 71.1971C7.46463 70.718 8.76822 70.4875 10.0787 70.5192H67.6713C68.9818 70.5509 70.2854 70.3204 71.5054 69.8413C72.7254 69.3622 73.8371 68.6441 74.7752 67.7294C75.7132 66.8146 76.4587 65.7217 76.9677 64.5148C77.4766 63.308 77.7388 62.0116 77.7388 60.702C77.7388 59.3924 77.4766 58.0961 76.9677 56.8892C76.4587 55.6824 75.7132 54.5894 74.7752 53.6746C73.8371 52.7599 72.7254 52.0418 71.5054 51.5627C70.2854 51.0836 68.9818 50.8531 67.6713 50.8848H31.6759C30.3654 50.9165 29.0618 50.686 27.8419 50.2069C26.6219 49.7278 25.5101 49.0097 24.5721 48.095C23.634 47.1802 22.8885 46.0873 22.3796 44.8804C21.8706 43.6736 21.6084 42.3772 21.6084 41.0676C21.6084 39.758 21.8706 38.4617 22.3796 37.2548C22.8885 36.0479 23.634 34.955 24.5721 34.0402C25.5101 33.1255 26.6219 32.4074 27.8419 31.9283C29.0618 31.4492 30.3654 31.2187 31.6759 31.2504H89.2685C86.6291 31.2831 84.0848 30.2673 82.1948 28.4263C80.3048 26.5854 79.224 24.07 79.1898 21.4332C79.2236 18.7963 80.3043 16.2807 82.1944 14.4397C84.0844 12.5987 86.629 11.583 89.2685 11.616H171.338C173.977 11.583 176.522 12.5987 178.412 14.4397C180.302 16.2807 181.383 18.7963 181.417 21.4332C181.383 24.07 180.302 26.5854 178.412 28.4263C176.522 30.2673 173.977 31.2831 171.338 31.2504H263.486C264.797 31.2187 266.1 31.4492 267.32 31.9283C268.54 32.4074 269.652 33.1255 270.59 34.0402C271.528 34.955 272.274 36.0479 272.782 37.2548C273.291 38.4617 273.554 39.758 273.554 41.0676C273.554 42.3772 273.291 43.6736 272.782 44.8804C272.274 46.0873 271.528 47.1802 270.59 48.095C269.652 49.0097 268.54 49.7278 267.32 50.2069C266.1 50.686 264.797 50.9165 263.486 50.8848H295.162C296.473 50.8531 297.776 51.0836 298.996 51.5627C300.216 52.0418 301.328 52.7599 302.266 53.6746C303.204 54.5894 303.949 55.6824 304.458 56.8892C304.967 58.0961 305.23 59.3924 305.23 60.702C305.23 62.0116 304.967 63.308 304.458 64.5148C303.949 65.7217 303.204 66.8146 302.266 67.7294C301.328 68.6441 300.216 69.3622 298.996 69.8413C297.776 70.3204 296.473 70.5509 295.162 70.5192H267.806C266.495 70.4875 265.191 70.718 263.971 71.1971C262.751 71.6762 261.64 72.3943 260.702 73.309C259.764 74.2238 259.018 75.3167 258.509 76.5236C258 77.7305 257.738 79.0268 257.738 80.3364C257.738 81.646 258 82.9424 258.509 84.1492C259.018 85.3561 259.764 86.449 260.702 87.3638C261.64 88.2785 262.751 88.9966 263.971 89.4757C265.191 89.9548 266.495 90.1853 267.806 90.1536H276.444C277.755 90.1219 279.059 90.3524 280.279 90.8315C281.498 91.3106 282.61 92.0287 283.548 92.9434C284.486 93.8582 285.232 94.9511 285.741 96.158C286.25 97.3649 286.512 98.6612 286.512 99.9708C286.512 101.28 286.25 102.577 285.741 103.784C285.232 104.99 284.486 106.083 283.548 106.998C282.61 107.913 281.498 108.631 280.279 109.11C279.059 109.589 277.755 109.82 276.444 109.788H66.2315Z" fill="#122666"/>
<path opacity="0.99" d="M213.093 118.203H107.986C99.6593 118.256 91.6342 115.091 85.5884 109.371C82.6608 106.642 80.3264 103.342 78.7303 99.6736C77.1342 96.0056 76.3105 92.0487 76.3105 88.049C76.3105 84.0494 77.1342 80.0925 78.7303 76.4244C80.3264 72.7564 82.6608 69.4556 85.5884 66.7273C91.6344 61.0075 99.6595 57.8436 107.986 57.8969C108.72 57.8969 109.465 57.9213 110.199 57.9688C109.684 55.1692 109.426 52.3286 109.426 49.4822C109.416 43.0983 110.726 36.7812 113.273 30.9266C115.745 25.2363 119.309 20.0851 123.764 15.7642C128.247 11.3954 133.53 7.92827 139.324 5.55144C147.122 2.35404 155.601 1.17365 163.977 2.11954C172.352 3.06542 180.354 6.10702 187.241 10.9628C191.276 13.8314 194.848 17.2997 197.833 21.2475C200.828 25.2022 203.179 29.6048 204.798 34.2925C206.358 34.1345 207.926 34.0553 209.495 34.0551C215.353 34.0422 221.158 35.1658 226.588 37.3635C231.773 39.4536 236.511 42.5138 240.547 46.3795C244.533 50.1776 247.731 54.7233 249.958 59.7568C252.24 64.9133 253.416 70.4906 253.407 76.1288C253.383 86.8316 249.189 97.1045 241.713 104.771C234.14 112.59 223.954 117.358 213.093 118.167V118.197V118.203Z" fill="white" stroke="#122666" stroke-width="2.5" stroke-miterlimit="10" stroke-linecap="round"/>
<path d="M172.778 18.6289C177.349 19.7849 181.538 22.1129 184.932 25.3827C188.326 28.6525 190.807 32.7508 192.129 37.2722" stroke="#122666" stroke-width="2.5" stroke-miterlimit="10" stroke-linecap="round"/>
<path d="M131.023 63.5062C131.057 66.1432 132.138 68.6588 134.028 70.4998C135.918 72.3408 138.462 73.3565 141.102 73.3234C143.741 73.3565 146.286 72.3408 148.176 70.4998C150.066 68.6588 151.147 66.1432 151.181 63.5062" stroke="#122666" stroke-width="2.5" stroke-miterlimit="10" stroke-linecap="round"/>
<path d="M172.778 63.5062C172.812 66.1432 173.892 68.6588 175.782 70.4998C177.672 72.3408 180.217 73.3565 182.856 73.3234C185.496 73.3565 188.041 72.3408 189.931 70.4998C191.821 68.6588 192.901 66.1432 192.935 63.5062" stroke="#122666" stroke-width="2.5" stroke-miterlimit="10" stroke-linecap="round"/>
<path d="M151.181 90.1543H172.058" stroke="#122666" stroke-width="2.5" stroke-miterlimit="10" stroke-linecap="round"/>
<path d="M81.1595 43.8739V41.5839L90.7429 30.275H81.8967V27.8484H94.4072V29.9802L84.8238 41.4472H94.639V43.871L81.1595 43.8739ZM56.8813 28.4454V25.2981L70.0585 9.74883H57.8892V6.41602H75.095V9.34751L61.9207 25.1154H75.4117V28.4483L56.8813 28.4454Z" fill="#122666"/>
</svg>
